<?xml version="1.0" encoding="UTF-8"?>
<svg id="B-20" xmlns="http://www.w3.org/2000/svg" width="902" height="902" viewBox="0 0 902 902">
  <polygon points="637.4 1 264.6 1 1 264.6 1 637.4 264.6 901 637.4 901 901 637.4 901 264.6 637.4 1" fill="#fff"/>
  <polygon points="264.4 901.5 .5 637.6 .5 264.4 264.4 .5 637.6 .5 901.5 264.4 901.5 637.6 637.6 901.5 264.4 901.5" fill="none" stroke="#000"/>
  <polygon points="277.03 871 31 624.97 31 277.03 277.03 31 624.97 31 871 277.03 871 624.97 624.97 871 277.03 871" fill="#d40000"/>
  <g id="STOP" fill="#fff">
    <path d="M207.49,439.3,186.62,571c37.28,0,67.5-30.22,67.5-67.5,0-30-19.56-55.42-46.63-64.2l-29.81-10.01c-14.28-4.65-24.18-17.95-24.18-33.29,0-19.33,15.67-35,35-35h9.38c12.51,0,23.5,6.57,29.68,16.45l25.43-15.89c-11.64-18.48-32.33-30.72-55.11-30.56h-9.38c-35.9,0-65,29.1-65,65-.03,28.37,18.35,53.18,44.91,61.83l29.8,10c15.04,4.87,25.91,19,25.91,35.67,0,20.71-16.78,37.5-37.5,37.5h-11.62c-12.71,0-23.94-6.32-30.72-15.99l-24.57,17.21c12.2,17.4,32.42,28.78,55.29,28.78h11.62Z"/>
    <polygon points="428 331 428 361 375.25 361 375.25 571 345.25 571 345.25 361 292.5 361 292.5 331 428 331"/>
    <path d="M533.5,331c-37.83,0-68.5,30.67-68.5,68.5v103c0,37.83,30.67,68.5,68.5,68.5s68.5-30.67,68.5-68.5v-103c0-37.83-30.67-68.5-68.5-68.5ZM568.5,502.5c0,19.33-15.67,35-35,35s-35-15.67-35-35v-103c0-19.33,15.67-35,35-35s35,15.67,35,35v103Z"/>
    <path d="M728.5,331h-67.5v240h30v-103h37.5c37.83,0,68.5-30.67,68.5-68.5s-30.67-68.5-68.5-68.5ZM728.5,437h-37.5v-75h37.5c20.71,0,37.5,16.79,37.5,37.5s-16.79,37.5-37.5,37.5Z"/>
  </g>
</svg>