<?xml version="1.0" encoding="UTF-8"?>
<svg id="B-35" xmlns="http://www.w3.org/2000/svg" width="800" height="800" viewBox="0 0 800 800">
  <circle cx="400" cy="400" r="400" fill="#d40000"/>
  <circle cx="400" cy="400" r="320" fill="#fff"/>
  <path d="M645.97,205.89l-194.11,194.11,194.11,194.11c42.19-53.37,67.36-120.81,67.36-194.11s-25.17-140.74-67.36-194.11ZM400,86.67c-73.3,0-140.74,25.17-194.11,67.36l194.11,194.11,194.11-194.11c-53.37-42.19-120.81-67.36-194.11-67.36ZM400,451.86l-194.11,194.11c53.37,42.19,120.81,67.36,194.11,67.36s140.74-25.17,194.11-67.36l-194.11-194.11ZM154.03,205.89c-42.19,53.37-67.36,120.81-67.36,194.11s25.17,140.74,67.36,194.11l194.11-194.11-194.11-194.11Z" fill="#039"/>
  <line x1="654.56" y1="654.56" x2="145.44" y2="145.44" fill="none" stroke="#d40000" stroke-miterlimit="10" stroke-width="60"/>
  <line x1="654.56" y1="145.44" x2="145.44" y2="654.56" fill="none" stroke="#d40000" stroke-miterlimit="10" stroke-width="60"/>
</svg>